HIERARCHY
ROOT Root
{
  OFFSET 0.0 0.0 0.0
  CHANNELS 6 Xposition Yposition Zposition Zrotation Yrotation Xrotation
  JOINT Hips
  {
    OFFSET 0.0 100.0 0.0
    CHANNELS 6 Xposition Yposition Zposition Zrotation Yrotation Xrotation
    JOINT Spine1
    {
      OFFSET -0.013727 5.003763 -0.053727
      CHANNELS 3 Zrotation Yrotation Xrotation
      JOINT Spine2
      {
        OFFSET -0.0 7.125301 -0.029825
        CHANNELS 3 Zrotation Yrotation Xrotation
        JOINT Chest
        {
          OFFSET -1e-06 7.550063 -0.815971
          CHANNELS 3 Zrotation Yrotation Xrotation
          JOINT Neck1
          {
            OFFSET -0.181677 26.311295 -0.553348
            CHANNELS 3 Zrotation Yrotation Xrotation
            JOINT Neck2
            {
              OFFSET -3e-06 7.709397 2.302585
              CHANNELS 3 Zrotation Yrotation Xrotation
              JOINT Head
              {
                OFFSET -5e-06 6.128916 1.953709
                CHANNELS 3 Zrotation Yrotation Xrotation
                JOINT HeadEnd
                {
                  OFFSET 0.003598 16.065403 -1.835379
                  CHANNELS 3 Zrotation Yrotation Xrotation
                }
                JOINT Jaw
                {
                  OFFSET 0.002637 0.475592 3.094941
                  CHANNELS 3 Zrotation Yrotation Xrotation
                }
                JOINT LeftEye
                {
                  OFFSET 3.206381 5.380205 7.586883
                  CHANNELS 3 Zrotation Yrotation Xrotation
                }
                JOINT RightEye
                {
                  OFFSET -3.22244 5.361869 7.558234
                  CHANNELS 3 Zrotation Yrotation Xrotation
                }
              }
            }
          }
          JOINT LeftShoulder
          {
            OFFSET 1.621652 23.237164 5.113413
            CHANNELS 3 Zrotation Yrotation Xrotation
            JOINT LeftArm
            {
              OFFSET 14.919846 2e-06 -5.502326
              CHANNELS 3 Zrotation Yrotation Xrotation
              JOINT LeftForeArm
              {
                OFFSET 28.739307 0.0 -0.002588
                CHANNELS 3 Zrotation Yrotation Xrotation
                JOINT LeftHand
                {
                  OFFSET 27.093981 -1e-06 0.002609
                  CHANNELS 3 Zrotation Yrotation Xrotation
                  JOINT LeftHandThumb1
                  {
                    OFFSET 2.276482 -1.392045 3.191413
                    CHANNELS 3 Zrotation Yrotation Xrotation
                    JOINT LeftHandThumb2
                    {
                      OFFSET 4.012836 -1.828127 1.641654
                      CHANNELS 3 Zrotation Yrotation Xrotation
                      JOINT LeftHandThumb3
                      {
                        OFFSET 2.798515 0.0 -3e-06
                        CHANNELS 3 Zrotation Yrotation Xrotation
                        JOINT LeftHandThumbEnd
                        {
                          OFFSET 3.180793 -4e-06 4e-06
                          CHANNELS 3 Zrotation Yrotation Xrotation
                        }
                      }
                    }
                  }
                  JOINT LeftHandIndex1
                  {
                    OFFSET 3.247555 -0.531998 2.296169
                    CHANNELS 3 Zrotation Yrotation Xrotation
                    JOINT LeftHandIndex2
                    {
                      OFFSET 6.364578 0.01206 0.1786
                      CHANNELS 3 Zrotation Yrotation Xrotation
                      JOINT LeftHandIndex3
                      {
                        OFFSET 3.662364 0.0 0.0
                        CHANNELS 3 Zrotation Yrotation Xrotation
                        JOINT LeftHandIndex4
                        {
                          OFFSET 2.329242 4e-06 4e-06
                          CHANNELS 3 Zrotation Yrotation Xrotation
                          JOINT LeftHandIndexEnd
                          {
                            OFFSET 2.759615 -0.180537 -0.113024
                            CHANNELS 3 Zrotation Yrotation Xrotation
                          }
                        }
                      }
                    }
                  }
                  JOINT LeftHandMiddle1
                  {
                    OFFSET 3.163495 0.240981 1.000332
                    CHANNELS 3 Zrotation Yrotation Xrotation
                    JOINT LeftHandMiddle2
                    {
                      OFFSET 6.19078 -0.259278 -1.002548
                      CHANNELS 3 Zrotation Yrotation Xrotation
                      JOINT LeftHandMiddle3
                      {
                        OFFSET 4.35652 -4e-06 -1e-06
                        CHANNELS 3 Zrotation Yrotation Xrotation
                        JOINT LeftHandMiddle4
                        {
                          OFFSET 2.996877 -8e-06 0.0
                          CHANNELS 3 Zrotation Yrotation Xrotation
                          JOINT LeftHandMiddleEnd
                          {
                            OFFSET 2.304287 -0.294569 -0.031741
                            CHANNELS 3 Zrotation Yrotation Xrotation
                          }
                        }
                      }
                    }
                  }
                  JOINT LeftHandRing1
                  {
                    OFFSET 2.882643 -0.053652 -0.322543
                    CHANNELS 3 Zrotation Yrotation Xrotation
                    JOINT LeftHandRing2
                    {
                      OFFSET 5.854541 -0.486202 -1.373841
                      CHANNELS 3 Zrotation Yrotation Xrotation
                      JOINT LeftHandRing3
                      {
                        OFFSET 4.350578 0.0 3e-06
                        CHANNELS 3 Zrotation Yrotation Xrotation
                        JOINT LeftHandRing4
                        {
                          OFFSET 2.651321 7e-06 2e-06
                          CHANNELS 3 Zrotation Yrotation Xrotation
                          JOINT LeftHandRingEnd
                          {
                            OFFSET 1.936105 0.077687 -7.1e-05
                            CHANNELS 3 Zrotation Yrotation Xrotation
                          }
                        }
                      }
                    }
                  }
                  JOINT LeftHandPinky1
                  {
                    OFFSET 2.8655 -0.310005 -1.600378
                    CHANNELS 3 Zrotation Yrotation Xrotation
                    JOINT LeftHandPinky2
                    {
                      OFFSET 5.087849 -1.331141 -1.77123
                      CHANNELS 3 Zrotation Yrotation Xrotation
                      JOINT LeftHandPinky3
                      {
                        OFFSET 3.070974 4e-06 0.0
                        CHANNELS 3 Zrotation Yrotation Xrotation
                        JOINT LeftHandPinky4
                        {
                          OFFSET 1.549672 0.0 1e-06
                          CHANNELS 3 Zrotation Yrotation Xrotation
                          JOINT LeftHandPinkyEnd
                          {
                            OFFSET 1.944893 -0.157802 0.057219
                            CHANNELS 3 Zrotation Yrotation Xrotation
                          }
                        }
                      }
                    }
                  }
                }
              }
            }
          }
          JOINT RightShoulder
          {
            OFFSET -1.380118 23.180309 5.214158
            CHANNELS 3 Zrotation Yrotation Xrotation
            JOINT RightArm
            {
              OFFSET -15.037196 1.2e-05 -5.545604
              CHANNELS 3 Zrotation Yrotation Xrotation
              JOINT RightForeArm
              {
                OFFSET -28.736639 2e-06 -0.002597
                CHANNELS 3 Zrotation Yrotation Xrotation
                JOINT RightHand
                {
                  OFFSET -27.133619 -0.0 0.002613
                  CHANNELS 3 Zrotation Yrotation Xrotation
                  JOINT RightHandThumb1
                  {
                    OFFSET -2.274032 -1.383988 3.163127
                    CHANNELS 3 Zrotation Yrotation Xrotation
                    JOINT RightHandThumb2
                    {
                      OFFSET -4.011429 -1.827466 1.640914
                      CHANNELS 3 Zrotation Yrotation Xrotation
                      JOINT RightHandThumb3
                      {
                        OFFSET -2.794935 -4e-06 -3e-06
                        CHANNELS 3 Zrotation Yrotation Xrotation
                        JOINT RightHandThumbEnd
                        {
                          OFFSET -3.183852 4e-06 1e-06
                          CHANNELS 3 Zrotation Yrotation Xrotation
                        }
                      }
                    }
                  }
                  JOINT RightHandIndex1
                  {
                    OFFSET -3.253266 -0.520057 2.282866
                    CHANNELS 3 Zrotation Yrotation Xrotation
                    JOINT RightHandIndex2
                    {
                      OFFSET -6.341917 0.012471 0.178266
                      CHANNELS 3 Zrotation Yrotation Xrotation
                      JOINT RightHandIndex3
                      {
                        OFFSET -3.654871 -8e-06 -0.0
                        CHANNELS 3 Zrotation Yrotation Xrotation
                        JOINT RightHandIndex4
                        {
                          OFFSET -2.327586 0.0 1e-06
                          CHANNELS 3 Zrotation Yrotation Xrotation
                          JOINT RightHandIndexEnd
                          {
                            OFFSET -2.76179 -0.180656 -0.113078
                            CHANNELS 3 Zrotation Yrotation Xrotation
                          }
                        }
                      }
                    }
                  }
                  JOINT RightHandMiddle1
                  {
                    OFFSET -3.168106 0.246593 1.00103
                    CHANNELS 3 Zrotation Yrotation Xrotation
                    JOINT RightHandMiddle2
                    {
                      OFFSET -6.180828 -0.258836 -1.000895
                      CHANNELS 3 Zrotation Yrotation Xrotation
                      JOINT RightHandMiddle3
                      {
                        OFFSET -4.348901 0.0 -0.0
                        CHANNELS 3 Zrotation Yrotation Xrotation
                        JOINT RightHandMiddle4
                        {
                          OFFSET -3.00024 -4e-06 -2e-06
                          CHANNELS 3 Zrotation Yrotation Xrotation
                          JOINT RightHandMiddleEnd
                          {
                            OFFSET -2.30252 -0.29437 -0.031706
                            CHANNELS 3 Zrotation Yrotation Xrotation
                          }
                        }
                      }
                    }
                  }
                  JOINT RightHandRing1
                  {
                    OFFSET -2.88569 -0.067952 -0.308858
                    CHANNELS 3 Zrotation Yrotation Xrotation
                    JOINT RightHandRing2
                    {
                      OFFSET -5.854198 -0.48613 -1.373731
                      CHANNELS 3 Zrotation Yrotation Xrotation
                      JOINT RightHandRing3
                      {
                        OFFSET -4.33881 -4e-06 -0.0
                        CHANNELS 3 Zrotation Yrotation Xrotation
                        JOINT RightHandRing4
                        {
                          OFFSET -2.654903 -4e-06 4e-06
                          CHANNELS 3 Zrotation Yrotation Xrotation
                          JOINT RightHandRingEnd
                          {
                            OFFSET -1.933568 0.077527 -5.2e-05
                            CHANNELS 3 Zrotation Yrotation Xrotation
                          }
                        }
                      }
                    }
                  }
                  JOINT RightHandPinky1
                  {
                    OFFSET -2.866425 -0.342796 -1.584145
                    CHANNELS 3 Zrotation Yrotation Xrotation
                    JOINT RightHandPinky2
                    {
                      OFFSET -5.091371 -1.332055 -1.772385
                      CHANNELS 3 Zrotation Yrotation Xrotation
                      JOINT RightHandPinky3
                      {
                        OFFSET -3.062664 -4e-06 1e-06
                        CHANNELS 3 Zrotation Yrotation Xrotation
                        JOINT RightHandPinky4
                        {
                          OFFSET -1.546529 4e-06 -2e-06
                          CHANNELS 3 Zrotation Yrotation Xrotation
                          JOINT RightHandPinkyEnd
                          {
                            OFFSET -1.945119 -0.157718 0.057211
                            CHANNELS 3 Zrotation Yrotation Xrotation
                          }
                        }
                      }
                    }
                  }
                }
              }
            }
          }
        }
      }
    }
    JOINT LeftLeg
    {
      OFFSET 10.043214 -8.434526 2.595655
      CHANNELS 3 Zrotation Yrotation Xrotation
      JOINT LeftShin
      {
        OFFSET -1e-06 -43.221752 -0.802913
        CHANNELS 3 Zrotation Yrotation Xrotation
        JOINT LeftFoot
        {
          OFFSET 1e-06 -42.155094 -3.481523
          CHANNELS 3 Zrotation Yrotation Xrotation
          JOINT LeftToeBase
          {
            OFFSET 0.0 -5.059472 13.231529
            CHANNELS 3 Zrotation Yrotation Xrotation
            JOINT LeftToeEnd
            {
              OFFSET -0.009607 -1.647619 6.513017
              CHANNELS 3 Zrotation Yrotation Xrotation
            }
          }
        }
      }
    }
    JOINT RightLeg
    {
      OFFSET -10.047278 -8.29526 2.620317
      CHANNELS 3 Zrotation Yrotation Xrotation
      JOINT RightShin
      {
        OFFSET 1e-06 -43.362206 -0.805556
        CHANNELS 3 Zrotation Yrotation Xrotation
        JOINT RightFoot
        {
          OFFSET 2e-06 -42.117393 -3.478398
          CHANNELS 3 Zrotation Yrotation Xrotation
          JOINT RightToeBase
          {
            OFFSET -0.0 -5.079609 13.284196
            CHANNELS 3 Zrotation Yrotation Xrotation
            JOINT RightToeEnd
            {
              OFFSET 0.009532 -1.634378 6.460591
              CHANNELS 3 Zrotation Yrotation Xrotation
            }
          }
        }
      }
    }
  }
}
MOTION
Frames: 4
Frame Time: 0.03333333333333333
0.0 0.0 0.0 0.0 -0.0 0.0 1.53558 98.913841 -5.591388 2.870554 -0.229732 4.205644 -1.959565 0.111536 -1.139919 -1.10995 0.52224 -5.236144 -3.801261 -0.213383 20.216524 1.172988 2.734333 3.490383 -0.56712 -0.252763 -3.594545 3.737785 -1.932124 -10.924938 7.7e-05 -2.2e-05 6e-06 -0.035241 0.091775 -0.061536 0.710426 -3.611957 -10.628954 -0.787625 3.804273 -10.63245 -10.427276 -6.884378 18.30513 -57.326801 -10.698789 11.605118 0.221681 -37.073433 -0.270555 4.940674 -1.287532 -1.95549 -5.882109 9.861288 0.702591 -10.936873 -0.360574 7.156207 -0.0 8.774828 -0.0 -15.652197 18.330551 6.414809 -1.844033 2.498505 -2.507278 -10.163603 4.678947 4.621109 -20.97603 -3e-06 1e-06 -21.226295 2.451698 -3.594004 1e-06 -5e-06 -0.0 -1.362682 2.240799 -0.746323 -21.334921 0.584911 3.008322 -13.821217 -4e-06 -0.0 -23.887178 -0.249081 -0.839484 -60.555367 2.62633 -1.078539 -0.294025 1.679688 0.833253 -14.218214 0.093216 1.300581 -34.212063 -0.287563 0.967169 -20.03322 0.964538 1.212843 0.0 1e-06 0.0 -3.440389 0.788234 0.501655 -15.928191 -3.16731 2.999706 -6.338829 -1e-06 -1e-06 -18.123453 3.648183 -4.905672 -2e-06 -0.0 -3e-06 9.640028 12.876438 18.555149 62.705181 17.322762 19.197626 -0.2366 33.514584 0.16702 -8.182121 2.988186 -1.287614 2.243539 -5.255033 -3.180155 14.282879 -0.826593 6.952499 -2e-06 -12.690598 -1e-06 16.112474 -18.001701 2.516932 1.665664 -1.95592 -2.878297 4.727796 -4.170585 4.993921 11.020516 2e-06 -1e-06 12.109041 -3.735714 -2.866782 0.0 0.0 0.0 1.291984 -1.928548 -1.498088 14.800115 0.56747 3.865605 14.24256 -1.341736 -6.660652 19.631952 0.143928 -0.648243 49.964207 -0.48662 -6.657844 0.353029 -1.51115 -0.03194 20.222775 3.684309 2.316628 18.787256 3e-06 1e-06 10.751617 -0.479868 1.397904 -0.0 1e-06 -1e-06 3.273804 0.305949 -0.580111 21.486799 11.830371 2.266135 8.16292 1e-06 -1e-06 18.399069 -3.798983 -4.94057 3e-06 -0.0 -0.0 1.970092 7.230626 -14.202526 -0.045055 -0.09641 17.399462 -5.250101 3.525469 -6.857872 1.646032 -1.910759 0.021133 0.0 -0.0 2e-06 -8.031122 -7.475637 -16.639475 0.098859 0.306513 23.656792 8.2915 -1.220371 -11.154572 -1.424735 0.94196 -0.065192 0.0 0.0 -1e-06 
0.0 0.0 0.0 0.0 -0.0 0.0 1.532907 98.945656 -5.530936 2.84378 -0.337088 4.215544 -1.973596 0.111461 -1.12075 -1.092085 0.57557 -5.23794 -3.819208 -0.245966 20.198195 1.197713 2.719769 3.47972 -0.626874 -0.211811 -3.590097 3.740061 -1.863011 -10.808929 7.7e-05 -2.2e-05 6e-06 -0.030666 0.0961 -0.061644 0.713957 -3.605509 -10.637408 -0.782209 3.805688 -10.645133 -10.428315 -6.874896 18.307625 -57.247528 -10.664352 11.721716 0.27184 -37.070625 -0.298753 4.748125 -1.303226 -1.633661 -5.882098 9.861273 0.702592 -10.936859 -0.360576 7.156197 1e-06 8.774816 -2e-06 -15.667024 18.298903 6.41437 -1.84403 2.498501 -2.507274 -10.163588 4.678938 4.621105 -20.976 -4e-06 4e-06 -21.226265 2.451693 -3.593996 1e-06 -5e-06 -0.0 -1.362679 2.240796 -0.746323 -21.334888 0.584907 3.008322 -13.821197 -4e-06 3e-06 -23.887142 -0.249078 -0.839481 -60.625919 2.623868 -1.020513 -0.294024 1.679685 0.833254 -14.218192 0.093213 1.300581 -34.212013 -0.287566 0.967174 -20.03319 0.964536 1.212844 0.0 -0.0 0.0 -3.440385 0.788232 0.501655 -15.92817 -3.167306 2.999708 -6.338821 -1e-06 1e-06 -18.123426 3.648178 -4.905664 -1e-06 -0.0 -2e-06 9.634852 12.934258 18.616762 62.749756 17.250315 19.076363 -0.294767 33.583088 0.152165 -8.137198 2.982635 -1.168596 2.243537 -5.255029 -3.180153 14.282868 -0.826591 6.952494 -5e-06 -12.690588 -0.0 16.137909 -17.977783 2.48586 1.665663 -1.955917 -2.878298 4.72779 -4.17058 4.993921 11.020509 5e-06 -1e-06 12.109032 -3.735708 -2.866781 -1e-06 0.0 0.0 1.291983 -1.928547 -1.498087 14.800105 0.567471 3.865602 14.242547 -1.341731 -6.660654 19.631935 0.143929 -0.648239 49.897064 -0.497123 -6.684472 0.353029 -1.511149 -0.031941 20.222759 3.684309 2.316627 18.787243 7e-06 -1e-06 10.751611 -0.479867 1.397904 0.0 1e-06 -1e-06 3.273802 0.305947 -0.58011 21.486782 11.83036 2.266128 8.162913 3e-06 1e-06 18.399052 -3.798978 -4.940567 3e-06 -0.0 -0.0 1.970269 7.048507 -14.189874 -0.0431 -0.092383 17.52599 -5.109507 3.798807 -7.012383 1.642116 -1.921531 -0.008805 0.0 -1e-06 2e-06 -8.045901 -7.297832 -16.592842 0.086027 0.267577 23.606796 8.429512 -1.181365 -11.222324 -1.425706 0.936503 -0.2376 -0.0 0.0 -1e-06 
0.0 0.0 0.0 0.0 -0.0 0.0 1.581794 98.95977 -5.454212 2.812973 -0.378391 4.224895 -1.984253 0.120574 -1.108332 -1.090798 0.581801 -5.256572 -3.83122 -0.290441 20.231121 1.215577 2.732239 3.480312 -0.662197 -0.153023 -3.594635 3.777461 -1.782633 -10.766972 7.7e-05 -2.2e-05 6e-06 -0.026521 0.085924 -0.057795 0.713094 -3.616882 -10.650316 -0.773304 3.796556 -10.659548 -10.443159 -6.861583 18.343708 -57.082062 -10.691675 11.839686 0.326683 -37.099804 -0.288084 4.568082 -1.262659 -1.45086 -5.8821 9.861275 0.702589 -10.936865 -0.360577 7.156202 2e-06 8.774817 -1e-06 -15.681319 18.30419 6.4036 -1.844031 2.498502 -2.507274 -10.163592 4.678937 4.621105 -20.976009 -9e-06 3e-06 -21.226273 2.45169 -3.593993 1e-06 -4e-06 -0.0 -1.36268 2.240796 -0.746322 -21.3349 0.584905 3.00832 -13.821205 -6e-06 2e-06 -23.887156 -0.249084 -0.839479 -60.631836 2.615326 -0.98413 -0.294024 1.679686 0.833256 -14.218198 0.093212 1.300579 -34.212021 -0.28757 0.967173 -20.033197 0.964533 1.212845 -0.0 -1e-06 0.0 -3.440386 0.788232 0.501654 -15.928177 -3.167309 2.999707 -6.338821 -2e-06 -1e-06 -18.123436 3.648176 -4.905662 -2e-06 -0.0 -2e-06 9.684044 12.98074 18.681597 62.757965 17.214081 19.01449 -0.3599 33.602684 0.11612 -8.062428 2.970283 -1.220104 2.243539 -5.255033 -3.180155 14.282878 -0.826593 6.952497 -3e-06 -12.690593 0.0 16.145948 -17.971228 2.479698 1.665665 -1.95592 -2.878298 4.727795 -4.170583 4.993922 11.020517 3e-06 -1e-06 12.109041 -3.735711 -2.866781 -0.0 0.0 1e-06 1.291985 -1.928547 -1.498088 14.800115 0.567468 3.865604 14.24256 -1.341733 -6.660652 19.631952 0.143927 -0.648244 49.847301 -0.51286 -6.706101 0.353029 -1.511149 -0.031939 20.222775 3.684307 2.316629 18.787256 5e-06 2e-06 10.751619 -0.479867 1.397904 2e-06 1e-06 0.0 3.273804 0.305947 -0.58011 21.486797 11.830368 2.266132 8.162921 3e-06 -1e-06 18.399065 -3.798982 -4.940565 3e-06 -2e-06 -0.0 1.975219 6.850396 -14.171705 -0.037558 -0.083176 17.650871 -5.010106 4.036888 -7.19642 1.639468 -1.93928 0.00746 0.0 -0.0 2e-06 -8.057007 -7.137968 -16.549337 0.077997 0.249884 23.601391 8.509086 -1.196009 -11.271581 -1.420778 0.92777 -0.33676 -0.0 -0.0 -1e-06 
0.0 0.0 0.0 0.0 -0.0 0.0 1.617933 98.937592 -5.335249 2.774416 -0.403419 4.252931 -1.985606 0.127572 -1.089146 -1.099675 0.5919 -5.262997 -3.841636 -0.353305 20.261822 1.221515 2.755068 3.477322 -0.673814 -0.118004 -3.605254 3.813761 -1.731348 -10.764031 7.7e-05 -2.2e-05 6e-06 -0.023715 0.075552 -0.053556 0.709932 -3.627633 -10.658413 -0.764787 3.786415 -10.66702 -10.435414 -6.871032 18.346346 -56.919174 -10.710841 11.882953 0.353568 -37.200695 -0.260737 4.521627 -1.233912 -1.399454 -5.882105 9.861285 0.702589 -10.936866 -0.360573 7.156199 -1e-06 8.774824 -2e-06 -15.705489 18.318155 6.390243 -1.844031 2.498503 -2.507279 -10.163595 4.678945 4.621105 -20.976015 -3e-06 -2e-06 -21.226282 2.451694 -3.594001 0.0 -5e-06 -1e-06 -1.362681 2.240798 -0.746325 -21.334906 0.584912 3.008319 -13.821208 -2e-06 -2e-06 -23.887159 -0.249077 -0.839485 -60.634792 2.590138 -0.96167 -0.294025 1.679687 0.833256 -14.218201 0.093218 1.300578 -34.212036 -0.287564 0.967163 -20.033203 0.964536 1.21284 0.0 -0.0 0.0 -3.440388 0.788234 0.501655 -15.928179 -3.167307 2.999703 -6.338824 -1e-06 -2e-06 -18.12344 3.648184 -4.905674 -1e-06 -0.0 -2e-06 9.725152 12.989304 18.687958 62.756409 17.208626 19.023294 -0.365077 33.534267 0.094477 -7.940077 2.977061 -1.318849 2.24354 -5.255035 -3.180156 14.282883 -0.826596 6.952501 -1e-06 -12.690598 -1e-06 16.146961 -17.965422 2.467253 1.665665 -1.95592 -2.878298 4.727796 -4.170585 4.993919 11.02052 0.0 -1e-06 12.109045 -3.735715 -2.866785 -1e-06 0.0 1e-06 1.291985 -1.928548 -1.498088 14.800122 0.567466 3.865607 14.242565 -1.341738 -6.660655 19.631954 0.143922 -0.648243 49.793034 -0.530435 -6.715379 0.353028 -1.511149 -0.03194 20.222778 3.684305 2.31663 18.787264 1e-06 -1e-06 10.751621 -0.479869 1.397905 0.0 1e-06 -1e-06 3.273805 0.305946 -0.580114 21.486799 11.830367 2.266135 8.162922 2e-06 -1e-06 18.399071 -3.798984 -4.940572 3e-06 -0.0 0.0 1.997545 6.722107 -14.22134 -0.032425 -0.074173 17.845972 -4.969057 4.212 -7.389639 1.638879 -1.951288 0.065519 -0.0 0.0 2e-06 -8.055516 -7.051579 -16.519598 0.075485 0.232672 23.609983 8.588275 -1.190574 -11.341064 -1.416241 0.931322 -0.365796 -0.0 -0.0 -1e-06 
